<svg width="18" height="18" viewBox="0 0 18 18" fill="none" xmlns="http://www.w3.org/2000/svg">
<g id="radio 1">
<path id="Vector" d="M9 10.5C9.82843 10.5 10.5 9.82843 10.5 9C10.5 8.17157 9.82843 7.5 9 7.5C8.17157 7.5 7.5 8.17157 7.5 9C7.5 9.82843 8.17157 10.5 9 10.5Z" stroke="#6D7885" stroke-width="1.5" stroke-linecap="round" stroke-linejoin="round"/>
<path id="Vector_2" d="M12.1799 5.81977C12.5983 6.23769 12.9302 6.73399 13.1566 7.28028C13.3831 7.82658 13.4997 8.41215 13.4997 9.00352C13.4997 9.59489 13.3831 10.1805 13.1566 10.7267C12.9302 11.273 12.5983 11.7693 12.1799 12.1873M5.81986 12.1798C5.40147 11.7618 5.06955 11.2655 4.84309 10.7192C4.61664 10.173 4.50007 9.58739 4.50007 8.99602C4.50007 8.40465 4.61664 7.81908 4.84309 7.27278C5.06955 6.72649 5.40147 6.23019 5.81986 5.81227M14.3024 3.69727C15.7084 5.10372 16.4983 7.01103 16.4983 8.99977C16.4983 10.9885 15.7084 12.8958 14.3024 14.3023M3.69736 14.3023C2.29133 12.8958 1.50146 10.9885 1.50146 8.99977C1.50146 7.01103 2.29133 5.10372 3.69736 3.69727" stroke="#6D7885" stroke-width="1.5" stroke-linecap="round" stroke-linejoin="round"/>
</g>
</svg>
